<?xml version="1.0" encoding="UTF-8"?>
<svg width="1440" height="900" viewBox="0 0 1440 900" fill="none" xmlns="http://www.w3.org/2000/svg">
  <!-- Background Grid -->
  <defs>
    <pattern id="grid" width="40" height="40" patternUnits="userSpaceOnUse">
      <path d="M 40 0 L 0 0 0 40" fill="none" stroke="rgba(79, 86, 107, 0.1)" stroke-width="1"/>
    </pattern>
  </defs>
  <rect width="1440" height="900" fill="url(#grid)" />
  
  <!-- Main Graph Lines -->
  <path d="M 0 700 Q 200 650, 300 550 Q 400 450, 500 480 Q 600 510, 700 400 Q 800 290, 900 270 Q 1000 250, 1100 200 Q 1200 150, 1400 100" 
        stroke="rgba(104, 117, 245, 0.6)" stroke-width="4" fill="none" />
  
  <path d="M 0 750 Q 150 730, 250 670 Q 350 610, 450 630 Q 550 650, 650 550 Q 750 450, 850 430 Q 950 410, 1050 350 Q 1150 290, 1400 250" 
        stroke="rgba(124, 178, 246, 0.5)" stroke-width="3" fill="none" />
  
  <path d="M 0 800 Q 100 790, 200 750 Q 300 710, 400 720 Q 500 730, 600 650 Q 700 570, 800 550 Q 900 530, 1000 480 Q 1100 430, 1400 380" 
        stroke="rgba(144, 213, 247, 0.4)" stroke-width="2" fill="none" />
  
  <!-- Gradient Area Under Main Graph -->
  <defs>
    <linearGradient id="graphGradient" x1="0%" y1="0%" x2="0%" y2="100%">
      <stop offset="0%" stop-color="rgba(104, 117, 245, 0.3)" />
      <stop offset="100%" stop-color="rgba(104, 117, 245, 0)" />
    </linearGradient>
  </defs>
  
  <path d="M 0 700 Q 200 650, 300 550 Q 400 450, 500 480 Q 600 510, 700 400 Q 800 290, 900 270 Q 1000 250, 1100 200 Q 1200 150, 1400 100 L 1400 900 L 0 900 Z" 
        fill="url(#graphGradient)" />
  
  <!-- Highlight Points -->
  <circle cx="300" cy="550" r="6" fill="rgba(104, 117, 245, 0.9)" />
  <circle cx="500" cy="480" r="6" fill="rgba(104, 117, 245, 0.9)" />
  <circle cx="700" cy="400" r="6" fill="rgba(104, 117, 245, 0.9)" />
  <circle cx="900" cy="270" r="6" fill="rgba(104, 117, 245, 0.9)" />
  <circle cx="1100" cy="200" r="6" fill="rgba(104, 117, 245, 0.9)" />
  
  <!-- Decorative Elements -->
  <circle cx="200" cy="650" r="30" fill="rgba(104, 117, 245, 0.05)" />
  <circle cx="600" cy="510" r="40" fill="rgba(104, 117, 245, 0.05)" />
  <circle cx="1000" cy="250" r="50" fill="rgba(104, 117, 245, 0.05)" />
  
  <!-- Small Abstract Data Points -->
  <g opacity="0.3">
    <circle cx="120" cy="690" r="2" fill="rgba(104, 117, 245, 0.6)" />
    <circle cx="150" cy="680" r="2" fill="rgba(104, 117, 245, 0.6)" />
    <circle cx="180" cy="675" r="2" fill="rgba(104, 117, 245, 0.6)" />
    <circle cx="220" cy="660" r="2" fill="rgba(104, 117, 245, 0.6)" />
    <circle cx="340" cy="540" r="2" fill="rgba(104, 117, 245, 0.6)" />
    <circle cx="370" cy="520" r="2" fill="rgba(104, 117, 245, 0.6)" />
    <circle cx="420" cy="490" r="2" fill="rgba(104, 117, 245, 0.6)" />
    <circle cx="550" cy="460" r="2" fill="rgba(104, 117, 245, 0.6)" />
    <circle cx="600" cy="430" r="2" fill="rgba(104, 117, 245, 0.6)" />
    <circle cx="650" cy="410" r="2" fill="rgba(104, 117, 245, 0.6)" />
    <circle cx="750" cy="350" r="2" fill="rgba(104, 117, 245, 0.6)" />
    <circle cx="820" cy="310" r="2" fill="rgba(104, 117, 245, 0.6)" />
    <circle cx="880" cy="280" r="2" fill="rgba(104, 117, 245, 0.6)" />
    <circle cx="950" cy="260" r="2" fill="rgba(104, 117, 245, 0.6)" />
    <circle cx="1020" cy="230" r="2" fill="rgba(104, 117, 245, 0.6)" />
    <circle cx="1080" cy="210" r="2" fill="rgba(104, 117, 245, 0.6)" />
    <circle cx="1150" cy="180" r="2" fill="rgba(104, 117, 245, 0.6)" />
    <circle cx="1220" cy="150" r="2" fill="rgba(104, 117, 245, 0.6)" />
    <circle cx="1300" cy="120" r="2" fill="rgba(104, 117, 245, 0.6)" />
  </g>
</svg> 